Coordinates
version=1
nRows=21
nColumns=22
inDegrees=yes

Units are S.I. units (second, meters, Newtons, ...)
If the header above contains a line with 'inDegrees', this indicates whether rotational values are in degrees (yes) or radians (no).

endheader
time	pelvis_tilt	pelvis_list	pelvis_rotation	pelvis_tx	pelvis_ty	pelvis_tz	hip_flexion_r	hip_adduction_r	hip_rotation_r	knee_angle_r	ankle_angle_r	subtalar_angle_r	hip_flexion_l	hip_adduction_l	hip_rotation_l	knee_angle_l	ankle_angle_l	subtalar_angle_l	lumbar_extension	lumbar_bending	lumbar_rotation
      4.10000000	     -8.90720340	     -6.60370430	     -5.64596461	      1.31355708	      0.96850595	      0.15938677	      8.44564360	      9.59376892	     -2.23804495	    -25.42218547	     22.75650061	     -2.18717055	     35.70520024	     -5.91309197	      2.81107517	    -28.55438855	      6.29510308	      1.33839883	     -0.69300987	      9.75604156	      7.36694930
      4.11000000	     -8.79719995	     -6.38503210	     -5.60088616	      1.32038291	      0.96933334	      0.15797230	      8.33390186	      9.21612487	     -2.08106236	    -26.14722199	     22.47160643	     -1.48017533	     35.28494486	     -5.55802994	      2.75230193	    -28.78943186	      6.79381148	      1.05237197	     -0.62926404	      9.46386463	      7.18562510
      4.12000000	     -8.71346507	     -6.13404162	     -5.58453088	      1.32712626	      0.97017489	      0.15652562	      8.33601876	      8.80261135	     -1.89618809	    -27.01076459	     22.18520572	     -0.65343787	     34.82079287	     -5.19313237	      2.61954989	    -28.89631146	      7.29296057	      0.77421272	     -0.53792760	      9.14598038	      7.03704308
      4.13000000	     -8.66722529	     -5.83570250	     -5.60229412	      1.33377719	      0.97101998	      0.15507346	      8.45915847	      8.34170472	     -1.67312399	    -27.99762130	     21.85565943	      0.27020825	     34.32081048	     -4.80661320	      2.41164354	    -28.86202828	      7.74272431	      0.49965524	     -0.40297140	      8.78278403	      6.91498303
      4.14000000	     -8.66482317	     -5.50625561	     -5.64489060	      1.34029180	      0.97180842	      0.15361387	      8.71662826	      7.84012062	     -1.48212381	    -29.11361652	     21.50883866	      1.29409829	     33.82174972	     -4.40888956	      2.14066079	    -28.73036573	      8.16325925	      0.22350456	     -0.22213910	      8.39368933	      6.80129196
      4.15000000	     -8.71542991	     -5.14806284	     -5.71681361	      1.34662807	      0.97252183	      0.15218872	      9.11124421	      7.30168174	     -1.33086697	    -30.33806882	     21.11507803	      2.36681905	     33.34158268	     -4.00299462	      1.82779434	    -28.50899084	      8.53994878	     -0.04281842	      0.01114852	      7.97868691	      6.69589567
      4.16000000	     -8.82190701	     -4.77682386	     -5.81059121	      1.35274267	      0.97313395	      0.15081669	      9.64168205	      6.73708668	     -1.25529695	    -31.65578179	     20.66062341	      3.48058277	     32.90474556	     -3.59938941	      1.49771040	    -28.22880738	      8.87836784	     -0.29527720	      0.29352536	      7.55310408	      6.58868471
      4.17000000	     -8.98050098	     -4.40349857	     -5.92187472	      1.35859482	      0.97361867	      0.14951841	     10.30234213	      6.15464040	     -1.27105314	    -33.06012523	     20.14697733	      4.58043879	     32.52822469	     -3.20860059	      1.15688531	    -27.92234737	      9.18444270	     -0.52403204	      0.61330936	      7.12618000	      6.48287615
      4.18000000	     -9.18161910	     -4.03741008	     -6.04025783	      1.36416196	      0.97397802	      0.14829437	     11.07456114	      5.56277300	     -1.37417090	    -34.53273767	     19.57752319	      5.63913057	     32.21576306	     -2.83453624	      0.82035958	    -27.61022536	      9.46333235	     -0.72957197	      0.95507338	      6.70701202	      6.36556575
      4.19000000	     -9.40695318	     -3.68929765	     -6.15088292	      1.36944074	      0.97422796	      0.14713100	     11.92909293	      4.97353802	     -1.54706030	    -36.05687418	     18.95744703	      6.64714073	     31.95755135	     -2.47743510	      0.51489567	    -27.30838056	      9.71735202	     -0.91772417	      1.29626942	      6.30479923	      6.22982693
      4.20000000	     -9.63779494	     -3.36771144	     -6.24464888	      1.37446261	      0.97439379	      0.14601190	     12.83368036	      4.39751898	     -1.76617708	    -37.61426639	     18.30731061	      7.61160830	     31.73465611	     -2.13931065	      0.25382744	    -27.02267352	      9.94850431	     -1.09652128	      1.61634707	      5.92657583	      6.07975382
      4.21000000	     -9.85239954	     -3.05755747	     -6.31523921	      1.37928433	      0.97449502	      0.14492618	     13.75560929	      3.82546628	     -1.99128626	    -39.19115198	     17.68597920	      8.44595642	     31.53111694	     -1.80901709	     -0.01451704	    -26.77027379	     10.18591499	     -1.26509718	      1.89844016	      5.55550684	      5.87363954
      4.22000000	    -10.03526122	     -2.76802275	     -6.35813353	      1.38394860	      0.97457641	      0.14383920	     14.66674689	      3.27062883	     -2.19787292	    -40.76582213	     17.10515735	      9.21550447	     31.31410849	     -1.47990732	     -0.23060185	    -26.52867300	     10.41068517	     -1.43212235	      2.12797312	      5.20209606	      5.65263731
      4.23000000	    -10.17183277	     -2.48683573	     -6.37326710	      1.38851783	      0.97466330	      0.14274142	     15.54267459	      2.72849876	     -2.35635986	    -42.31780290	     16.61425384	      9.85187988	     31.06449157	     -1.14106443	     -0.42158931	    -26.29815977	     10.63358995	     -1.59351368	      2.29715462	      4.85199155	      5.40071325
      4.24000000	    -10.25380935	     -2.21332746	     -6.36186021	      1.39302532	      0.97478361	      0.14161536	     16.36459554	      2.20284501	     -2.45676504	    -43.82010827	     16.23906339	     10.31844903	     30.76808238	     -0.78853942	     -0.57974549	    -26.07372415	     10.85359225	     -1.74802178	      2.40070797	      4.50859258	      5.12821285
      4.25000000	    -10.26144746	     -1.93873432	     -6.31420179	      1.39753038	      0.97500931	      0.14046760	     17.09176129	      1.68671318	     -2.50685527	    -45.22497582	     15.97237964	     10.48216508	     30.37607069	     -0.40349672	     -0.67597333	    -25.80739818	     11.07009472	     -1.83988296	      2.42648909	      4.14991454	      4.82086187
      4.26000000	    -10.25016267	     -1.67754923	     -6.25628102	      1.40197697	      0.97522828	      0.13931399	     17.79079307	      1.19950298	     -2.51127245	    -46.52879076	     15.88021881	     10.55317952	     29.98269200	     -0.02819503	     -0.78242578	    -25.56654822	     11.29693082	     -1.96801021	      2.43325327	      3.81119809	      4.50227895
      4.27000000	    -10.20244673	     -1.43220594	     -6.18302294	      1.40637121	      0.97551785	      0.13815709	     18.42946365	      0.73881215	     -2.48906510	    -47.69043817	     15.92733530	     10.45474294	     29.55062737	      0.34376680	     -0.86036132	    -25.31913063	     11.50929068	     -2.10386032	      2.40035454	      3.48892768	      4.16723960
      4.28000000	    -10.12440457	     -1.20004303	     -6.10400684	      1.41069406	      0.97589249	      0.13700714	     19.00952140	      0.30044309	     -2.45210291	    -48.68563656	     16.09423964	     10.15305734	     29.08326300	      0.71030424	     -0.91703924	    -25.05736948	     11.68950648	     -2.24422666	      2.33290679	      3.18277137	      3.83058347
      4.29000000	    -10.00566791	     -1.00711573	     -6.04008137	      1.41494395	      0.97639854	      0.13591746	     19.50831613	     -0.08784717	     -2.41931013	    -49.48112386	     16.27356847	      9.40080399	     28.56624408	      1.02884459	     -0.99091826	    -24.78314180	     11.87153387	     -2.46727710	      2.21400543	      2.92276019	      3.50790284
      4.30000000	     -9.89662079	     -0.84178216	     -5.97295730	      1.41906833	      0.97695636	      0.13484696	     19.98518735	     -0.44875150	     -2.41638742	    -50.08541839	     16.55136937	      8.65865924	     28.05663726	      1.32356737	     -1.02135503	    -24.49238584	     12.02471660	     -2.57797346	      2.10276760	      2.69917603	      3.18103308
